<?xml version="1.0" encoding="UTF-8"?>
<svg version="1.1" xmlns="http://www.w3.org/2000/svg" width="632" height="694">
<path d="M0 0 C13.14789604 10.33190624 20.25847668 22.56646899 23 39 C23.27064859 42.78254788 23.27384472 46.54928282 23.25878906 50.34033203 C23.26404602 51.98865273 23.26404602 51.98865273 23.26940918 53.67027283 C23.27817042 57.28285142 23.27239461 60.8952321 23.265625 64.5078125 C23.26697384 67.03734372 23.26891619 69.56687469 23.27142334 72.09640503 C23.27436752 77.39372468 23.27029511 82.69097453 23.26074219 87.98828125 C23.24989344 94.07359937 23.25336132 100.15878305 23.264395 106.24409783 C23.27464633 112.13819961 23.27345617 118.03225124 23.26763153 123.92635727 C23.26630674 126.4147735 23.26790124 128.90319321 23.27259064 131.39160538 C23.29123985 144.07509411 23.28566016 156.49072209 21 169 C20.86574615 169.74935318 20.73149231 170.49870636 20.59317017 171.27076721 C18.51049199 181.69322044 14.14565246 190.7946364 9 200 C8.45472656 200.97710937 7.90945313 201.95421875 7.34765625 202.9609375 C2.83896707 210.47909402 -2.87448297 216.92465399 -8.6706543 223.4597168 C-9.88181238 224.86305864 -11.02344105 226.3256528 -12.15625 227.79296875 C-14.20201069 230.24181365 -16.36483132 231.43767475 -19.1640625 232.9140625 C-21.07841776 234.04638327 -22.55442155 235.30688133 -24.1875 236.8125 C-48.71783735 258.40572379 -82.54815325 258.33975493 -113.21761012 258.15618873 C-116.92789257 258.13617642 -120.63820504 258.12790237 -124.348526 258.11811829 C-130.66299152 258.09994914 -136.97739129 258.07442719 -143.29180908 258.04400635 C-152.11075277 258.0017297 -160.92969071 257.97561687 -169.74870372 257.95300078 C-184.97480201 257.91344116 -200.20065541 257.84958783 -215.42656517 257.7642498 C-224.44977235 257.71396516 -233.47291557 257.67388968 -242.49621958 257.64570588 C-249.00299209 257.62453681 -255.50965035 257.59212804 -262.01632887 257.55129844 C-265.84796651 257.52756554 -269.67947349 257.50870005 -273.51118279 257.50238609 C-277.71069979 257.49525033 -281.90973388 257.4649067 -286.10913086 257.43237305 C-287.34953125 257.43380814 -288.58993164 257.43524323 -289.86791992 257.4367218 C-291.00498886 257.42418365 -292.1420578 257.41164551 -293.31358337 257.39872742 C-294.29730895 257.39411845 -295.28103453 257.38950949 -296.29456997 257.38476086 C-299.53131619 256.92443727 -301.39710268 255.96060994 -304 254 C-305.57916781 250.44687243 -306.46483141 248.29488751 -305.125 244.5625 C-302.56981093 241.48124259 -299.79260747 238.70879046 -296.921875 235.921875 C-294.8678773 233.94039085 -294.8678773 233.94039085 -292.8125 231.25 C-290.78902564 228.73810079 -288.51352272 227.01081818 -286 225 C-284.9171875 223.63875 -284.9171875 223.63875 -283.8125 222.25 C-283.214375 221.5075 -282.61625 220.765 -282 220 C-281.34 220 -280.68 220 -280 220 C-279.75427183 219.42909354 -279.50854366 218.85818708 -279.25536919 218.26998043 C-277.78495824 215.61115774 -276.06782362 213.82496105 -273.91409302 211.68031311 C-273.05888062 210.82379654 -272.20366821 209.96727997 -271.32254028 209.08480835 C-270.37283002 208.14377072 -269.42302836 207.20282532 -268.47314453 206.26196289 C-267.47398946 205.26500972 -266.47528229 204.26760749 -265.47698975 203.26979065 C-263.32783387 201.12356645 -261.17556103 198.98053544 -259.0208168 196.83992195 C-255.61200018 193.45338848 -252.21030115 190.05976564 -248.80953979 186.66514587 C-243.42784333 181.29482976 -238.04149626 175.92920612 -232.65310466 170.56560844 C-223.00875771 160.96556739 -213.3699366 151.35998622 -203.73637474 141.74912256 C-200.35648205 138.37762419 -196.97380119 135.00895583 -193.58883309 131.64255345 C-191.48061978 129.54500874 -189.37445725 127.44541363 -187.2687912 125.34531212 C-185.83042245 123.91205056 -184.38950967 122.48134351 -182.94851685 121.05072021 C-182.08766479 120.19138382 -181.22681274 119.33204742 -180.33987427 118.44667053 C-179.22102687 117.33310228 -179.22102687 117.33310228 -178.07957649 116.1970377 C-175.90379982 113.89836613 -173.95978685 111.48378027 -172 109 C-167.49450549 104.16483516 -167.49450549 104.16483516 -164 103 C-164 102.34 -164 101.68 -164 101 C-159.69767442 96.23255814 -159.69767442 96.23255814 -156 95 C-155.29485545 93.68660996 -154.63188612 92.35016375 -154 91 C-152.60215473 89.35885239 -152.60215473 89.35885239 -150.95930481 87.7255249 C-150.33561005 87.10052597 -149.71191528 86.47552704 -149.06932068 85.83158875 C-148.38620316 85.15723282 -147.70308563 84.48287689 -146.99926758 83.78808594 C-146.27870178 83.06883438 -145.55813599 82.34958282 -144.81573486 81.60853577 C-142.42989282 79.22918978 -140.03715694 76.85689767 -137.64453125 74.484375 C-135.98213216 72.82824863 -134.32024873 71.17160452 -132.65885925 69.51446533 C-128.27797062 65.14689086 -123.89156088 60.78490707 -119.50354004 56.42449951 C-112.49681524 49.46084167 -105.49667679 42.4905803 -98.49991417 35.51691437 C-96.06124776 33.08841755 -93.61916443 30.66339674 -91.17671204 28.2387085 C-89.66692426 26.73575571 -88.15724944 25.23268946 -86.64770508 23.72949219 C-85.63821053 22.73010368 -85.63821053 22.73010368 -84.60832214 21.71052551 C-80.75368126 17.86504481 -77.09559751 13.90861731 -73.55535412 9.77122879 C-72.08711844 8.09921001 -70.66240391 6.48041951 -69 5 C-68.34 5 -67.68 5 -67 5 C-67 4.34 -67 3.68 -67 3 C-47.49703869 -12.72490075 -20.67512657 -15.29346265 0 0 Z " fill="#FD0210" transform="translate(327,57)"/>
<path d="M0 0 C4.3186701 3.63408091 8.5283692 7.34836278 12.63671875 11.21875 C13.30058594 11.81816406 13.96445313 12.41757812 14.6484375 13.03515625 C35.23371145 32.36777661 49.51545992 62.17879184 51.63671875 90.21875 C51.79452427 95.45379701 51.80452132 100.68766452 51.8137207 105.92456055 C51.81999607 107.50234116 51.8266438 109.08012034 51.83363342 110.65789795 C51.8545275 115.80707803 51.8650137 120.95625795 51.875 126.10546875 C51.87905136 127.8837517 51.88316839 129.6620345 51.88735008 131.44031715 C51.90635996 139.78785085 51.9206065 148.13537588 51.92896205 156.48292702 C51.93875547 166.1057763 51.96514721 175.72839685 52.00546294 185.35116547 C52.03560896 192.80276105 52.05042899 200.25429089 52.05374306 207.70594627 C52.05609281 212.15170572 52.06504548 216.59721958 52.09020424 221.04291344 C52.11346733 225.22009954 52.11772549 229.39687787 52.10744286 233.57411194 C52.10694716 235.10515512 52.11327766 236.63621831 52.1269989 238.16720009 C52.14470877 240.26048891 52.13761867 242.3523121 52.12446594 244.44560242 C52.1268543 245.61565166 52.12924265 246.78570089 52.13170338 247.99120617 C51.5238896 251.95445167 50.12224553 254.10560929 47.63671875 257.21875 C43.95025747 259.67639085 42.08386057 260.21875 37.63671875 260.21875 C29.68774763 256.38037696 24.06337362 249.73985093 18.26171875 243.28125 C14.82514932 239.48560165 11.34586928 235.94903815 7.3553775 232.73560184 C5.52116405 231.11676387 3.99293578 229.39703915 2.41161633 227.53115177 C-1.225181 223.32642335 -5.06754703 219.38553632 -9.01164246 215.47032166 C-9.74984059 214.73338579 -10.48803873 213.99644993 -11.2486065 213.23718268 C-13.70267141 210.78846047 -16.16030191 208.34334912 -18.61791992 205.89819336 C-20.38607725 204.1352336 -22.15398979 202.37202831 -23.92167664 200.6085968 C-27.71859052 196.82159784 -31.51693291 193.03604029 -35.31639671 189.25160027 C-41.3245181 183.26694241 -47.32737564 177.27701977 -53.329422 171.28627014 C-55.38658469 169.23310792 -57.44378149 167.17997988 -59.50098896 165.12686253 C-60.01495306 164.61391765 -60.52891717 164.10097278 -61.05845594 163.57248412 C-66.8967337 157.7459274 -72.73609218 151.92045433 -78.57592773 146.09545898 C-79.10923064 145.56350851 -79.64253355 145.03155804 -80.19199715 144.48348785 C-88.84465962 135.85303186 -97.50114783 127.22642093 -106.15859207 118.60076206 C-115.05977595 109.73197827 -123.95518442 100.85742922 -132.84568769 91.97793871 C-138.32337771 86.50746403 -143.80574861 81.04176668 -149.29426918 75.58215798 C-153.49792035 71.39976784 -157.693717 67.20955896 -161.88664436 63.01641655 C-163.60615431 61.29932914 -165.32824403 59.58482068 -167.05309296 57.87309647 C-169.40768147 55.53568035 -171.75282591 53.18917376 -174.09587097 50.8401947 C-174.77981546 50.16567086 -175.46375995 49.49114701 -176.16843003 48.79618305 C-180.85914469 44.06562819 -184.74113991 39.57831326 -185.98828125 32.84375 C-184.20973482 22.52818072 -174.35258933 14.50053995 -167.36328125 7.21875 C-166.78964844 6.59742188 -166.21601563 5.97609375 -165.625 5.3359375 C-164.36328125 4.21875 -164.36328125 4.21875 -162.36328125 4.21875 C-162.03328125 3.22875 -161.70328125 2.23875 -161.36328125 1.21875 C-159.35471775 -0.45902634 -157.37661566 -1.97369165 -155.23828125 -3.46875 C-154.29927979 -4.12858887 -154.29927979 -4.12858887 -153.34130859 -4.80175781 C-107.65598865 -36.24380682 -43.73378956 -34.64545673 0 0 Z " fill="#FEC715" transform="translate(205.36328125,367.78125)"/>
<path d="M0 0 C12.33503281 1.78450982 23.39926174 4.43717939 33 13 C33 13.66 33 14.32 33 15 C33.83680943 15.34987473 33.83680943 15.34987473 34.6905241 15.70681763 C37.59344874 17.3322994 39.59452337 19.33942245 41.95161438 21.69091797 C42.43603585 22.17151389 42.92045732 22.65210981 43.41955823 23.14726925 C45.04010916 24.75750911 46.65343049 26.37480023 48.2668457 27.9921875 C49.42807042 29.14906443 50.58971221 30.30552285 51.7517395 31.46159363 C54.90750106 34.60395419 58.0568151 37.7527023 61.20461679 40.90303421 C63.83663885 43.53612625 66.47163227 46.16623482 69.1065833 48.7963953 C75.32887024 55.00758108 81.54580622 61.22408763 87.75952148 67.44384766 C94.1559303 73.84628371 100.56143024 80.23951836 106.97150928 86.62826538 C112.48282782 92.12192047 117.98827019 97.62141681 123.48914021 103.12553406 C126.77069803 106.40889893 130.05440592 109.69003526 133.34383583 112.96551514 C136.44252843 116.0515585 139.53377036 119.1448822 142.61964798 122.24373817 C143.7477266 123.37416757 144.87831936 124.50209507 146.01172066 125.62718773 C159.91361255 139.43457089 169.19589651 152.9386489 170 173 C169.76610832 176.537015 169.10515231 179.63873366 168 183 C167.61134766 184.24330078 167.61134766 184.24330078 167.21484375 185.51171875 C162.40818535 199.09937216 152.16497 207.44884945 140.02734375 214.421875 C127.38685632 220.02236438 113.07378077 219.44618497 99.5703125 219.3984375 C97.5249725 219.40046477 95.47963321 219.4033816 93.43429565 219.40713501 C89.16983079 219.41152966 84.90555586 219.40522159 80.64111328 219.39111328 C75.22301619 219.37404521 69.8053659 219.38386609 64.38728523 219.40183067 C60.16947169 219.41276503 55.95176089 219.40917798 51.73394394 219.4014473 C49.73841166 219.3994707 47.74286951 219.40181324 45.74734879 219.40888596 C22.3707277 219.47357342 0.77690206 216.81598844 -17 200 C-17 199.34 -17 198.68 -17 198 C-17.66 198 -18.32 198 -19 198 C-33.11116323 181.75693441 -37.21983588 163.34143666 -37.44921875 142.23046875 C-37.47111031 140.80115317 -37.49363278 139.37184713 -37.51673889 137.94255066 C-37.57509617 134.14155365 -37.62050647 130.34051811 -37.66160583 126.53929901 C-37.6875844 124.17983479 -37.71642349 121.82042055 -37.74597168 119.46099854 C-37.98852824 99.76397541 -38.10516624 80.07158839 -37.75 60.375 C-37.73730072 59.44908051 -37.72460144 58.52316101 -37.71151733 57.56918335 C-37.44252249 39.7357696 -35.08097585 24.6738633 -22.41015625 11.19921875 C-18.93661629 8.02968391 -15.24983238 5.95020989 -11 4 C-10.33097656 3.63132813 -9.66195313 3.26265625 -8.97265625 2.8828125 C-6.00462906 1.55454687 -3.20171134 1.87685726 0 2 C0 1.34 0 0.68 0 0 Z " fill="#0093F9" transform="translate(419,162)"/>
<path d="M0 0 C11.95701432 -0.09590498 23.91383987 -0.17006947 35.8711853 -0.20761871 C39.29172409 -0.21869225 42.71212429 -0.23654106 46.13259888 -0.26016998 C50.14945941 -0.28737224 54.16609436 -0.2997936 58.18304443 -0.30058479 C59.64954448 -0.30320601 61.11604579 -0.31087614 62.58248901 -0.324049 C64.58228647 -0.34107456 66.58222761 -0.33747613 68.58209229 -0.33289337 C70.2560331 -0.33836182 70.2560331 -0.33836182 71.96379089 -0.34394073 C75.59153103 0.08462961 77.9685932 1.12151425 81.07452393 3.02355194 C83.63658235 6.86663958 83.74819157 8.45758234 83.07452393 13.02355194 C78.56717038 19.50994391 72.24894761 25.03539593 66.68414307 30.59923553 C65.24170536 32.0439019 63.80750828 33.49645049 62.37335205 34.94933319 C61.46391846 35.86070038 60.55448486 36.77206757 59.61749268 37.71105194 C58.79273438 38.53991913 57.96797607 39.36878632 57.1182251 40.22277069 C55.07452393 42.02355194 55.07452393 42.02355194 53.07452393 42.02355194 C52.73421143 42.88980194 52.73421143 42.88980194 52.38702393 43.77355194 C50.72690754 46.61946575 48.68264435 48.02197115 46.07452393 50.02355194 C43.61927986 52.36187962 41.3861355 54.59652867 39.38702393 57.33605194 C38.95389893 57.89292694 38.52077393 58.44980194 38.07452393 59.02355194 C37.41452393 59.02355194 36.75452393 59.02355194 36.07452393 59.02355194 C36.07452393 59.68355194 36.07452393 60.34355194 36.07452393 61.02355194 C34.6383045 62.25936866 33.19621856 63.48932182 31.71905518 64.67589569 C28.18066471 67.57552683 25.17075624 70.88612047 22.26202393 74.39855194 C20.24254103 76.78222642 18.18889327 78.84855214 15.78814697 80.84337616 C9.0079535 86.7099731 2.79264061 93.18299382 -3.53094482 99.53136444 C-4.94220863 100.94449715 -6.35369621 102.3574064 -7.76539612 103.77010345 C-11.46292688 107.47143146 -15.15744616 111.17575095 -18.85131836 114.88072968 C-22.60794659 118.64759726 -26.36741159 122.41163126 -30.12664795 126.17589569 C-36.19657967 132.2545905 -42.26480028 138.334987 -48.33071899 144.41768646 C-49.37843291 145.46823677 -50.426321 146.51861342 -51.47441673 147.56878281 C-52.87220737 148.97014705 -54.26811923 150.37338452 -55.66395569 151.77669525 C-58.01541836 154.11291105 -60.44653011 156.3234874 -62.92547607 158.52355194 C-66.36366729 161.60169658 -69.70392814 164.71722643 -72.92547607 168.02355194 C-74.25743837 169.3582549 -75.59090301 170.69145949 -76.92547607 172.02355194 C-77.56485107 172.66292694 -78.20422607 173.30230194 -78.86297607 173.96105194 C-80.32822746 175.42630332 -81.79511407 176.88992028 -83.26312256 178.35240936 C-85.72565635 180.82307257 -88.15913325 183.31835099 -90.58563232 185.82433319 C-92.38611899 187.66186146 -94.18690942 189.49909214 -95.98797607 191.33605194 C-97.30572021 192.70406952 -97.30572021 192.70406952 -98.65008545 194.09972382 C-109.41149709 205.01766508 -120.58049495 213.03922548 -136.15203857 214.08605194 C-142.25144877 213.94860044 -147.13693368 212.11655007 -152.30047607 208.96105194 C-157.91717141 202.6757024 -159.14958831 196.20982387 -159.52264404 187.92491913 C-159.56165266 187.14079525 -159.60066128 186.35667137 -159.64085197 185.54878616 C-160.06199938 176.29788785 -160.07020314 167.04774657 -160.05828857 157.78917694 C-160.05896529 155.89462522 -160.05993834 154.00007359 -160.06118774 152.10552216 C-160.06264892 148.16250012 -160.06056264 144.21950097 -160.05584717 140.27648163 C-160.05016674 135.2906854 -160.05342844 130.30494325 -160.05941963 125.31914902 C-160.06308193 121.41342024 -160.06186079 117.50770369 -160.05929184 113.60197449 C-160.0586373 111.76687615 -160.05939764 109.9317766 -160.06177139 108.09667969 C-160.07183527 98.13112383 -159.92597899 88.18365873 -159.51873779 78.22570038 C-159.48525301 77.32361973 -159.45176823 76.42153908 -159.41726875 75.49212265 C-158.62930464 58.24686988 -152.01879355 43.14881371 -140.92547607 30.02355194 C-140.40469482 29.28363007 -139.88391357 28.54370819 -139.34735107 27.78136444 C-138.87813232 27.20128632 -138.40891357 26.62120819 -137.92547607 26.02355194 C-137.26547607 26.02355194 -136.60547607 26.02355194 -135.92547607 26.02355194 C-135.92547607 25.36355194 -135.92547607 24.70355194 -135.92547607 24.02355194 C-120.65002143 10.53862678 -101.41311703 1.0718811 -80.79290771 0.81822968 C-80.08687125 0.80834141 -79.38083479 0.79845314 -78.65340328 0.78826523 C-76.29751355 0.75658288 -73.94160563 0.73177165 -71.58563232 0.70714569 C-69.89886088 0.6862815 -68.21209335 0.66509973 -66.52532959 0.64362335 C-61.96229665 0.58722019 -57.39921575 0.53767095 -52.83607864 0.49051666 C-49.99142846 0.46108766 -47.1467914 0.43058257 -44.30215454 0.39989471 C-29.53495104 0.24230094 -14.76755526 0.1188882 0 0 Z " fill="#00A228" transform="translate(449.92547607421875,413.97644805908203)"/>
<path d="M0 0 C4.3186701 3.63408091 8.5283692 7.34836278 12.63671875 11.21875 C13.30058594 11.81816406 13.96445313 12.41757812 14.6484375 13.03515625 C35.22741342 32.36186183 49.52755984 62.18330166 51.63671875 90.21875 C51.79017097 95.46976452 51.79424861 100.71944087 51.79785156 105.97216797 C51.80248732 107.55481581 51.80751298 109.13746256 51.81289673 110.72010803 C51.82593743 114.99443319 51.83244761 119.26874271 51.83690739 123.54308462 C51.8398476 126.2144361 51.84395384 128.88578337 51.84841156 131.55713272 C51.86205558 139.9190792 51.87174111 148.28101599 51.87561345 156.64297283 C51.88010687 166.29128047 51.89772691 175.93944735 51.92661405 185.58771217 C51.94819483 193.05454833 51.95831556 200.52134472 51.95965457 207.98821175 C51.96070386 212.44556428 51.96663969 216.90278392 51.98447418 221.36010361 C52.00089577 225.54461844 52.00313942 229.7288995 51.99433517 233.91343498 C51.993562 235.45056851 51.99794425 236.98771434 52.00779343 238.52481651 C52.0204285 240.61894833 52.0146837 242.71224103 52.00421143 244.80636597 C52.00567799 245.97918058 52.00714455 247.1519952 52.00865555 248.36034966 C51.63671875 251.21875 51.63671875 251.21875 50.11375046 253.119524 C49.38261976 253.66364087 49.38261976 253.66364087 48.63671875 254.21875 C48.63617398 253.33859285 48.63562922 252.45843571 48.63506794 251.55160713 C48.62005399 230.06463776 48.57742145 208.57787477 48.50462818 187.09102058 C48.47008018 176.69981703 48.44463609 166.30874473 48.44116211 155.91748047 C48.43810798 146.85290442 48.41742408 137.78856275 48.37619418 128.72407711 C48.35499322 123.93128362 48.3421965 119.13882223 48.35056496 114.3459816 C48.35818771 109.81990408 48.34195418 105.2944949 48.3086586 100.76853943 C48.30052312 99.12163639 48.30055735 97.4746656 48.31012154 95.82777023 C48.43233395 72.43740659 40.3703081 50.87591948 26.63671875 32.03125 C24.63671875 29.21875 24.63671875 29.21875 24.63671875 27.21875 C23.97671875 27.21875 23.31671875 27.21875 22.63671875 27.21875 C21.27308667 25.23928408 19.94253231 23.2368255 18.63671875 21.21875 C18.05921875 20.64125 17.48171875 20.06375 16.88671875 19.46875 C16.26796875 18.85 16.26796875 18.85 15.63671875 18.21875 C15.63671875 17.55875 15.63671875 16.89875 15.63671875 16.21875 C15.07984375 15.97125 14.52296875 15.72375 13.94921875 15.46875 C9.11536516 12.85585617 5.49044469 9.07247594 1.63671875 5.21875 C0.64671875 4.55875 -0.34328125 3.89875 -1.36328125 3.21875 C-1.36328125 2.55875 -1.36328125 1.89875 -1.36328125 1.21875 C-1.92273438 0.95449219 -2.4821875 0.69023437 -3.05859375 0.41796875 C-5.57667609 -0.89228765 -7.87372102 -2.39836578 -10.23828125 -3.96875 C-17.52558098 -8.64713758 -25.83129103 -13.94387044 -34.36328125 -15.78125 C-35.66188589 -16.24128201 -36.95369658 -16.72090895 -38.23828125 -17.21875 C-38.93953125 -17.48300781 -39.64078125 -17.74726563 -40.36328125 -18.01953125 C-41.99163409 -18.63970469 -43.61563297 -19.27130067 -45.23828125 -19.90625 C-48.74905521 -20.88926671 -52.07412994 -21.2014678 -55.703125 -21.4375 C-58.36328125 -21.78125 -58.36328125 -21.78125 -61.59472656 -22.78833008 C-65.35439513 -23.77890873 -68.44532946 -24.02537909 -72.3203125 -24.01171875 C-73.59712891 -24.00978516 -74.87394531 -24.00785156 -76.18945312 -24.00585938 C-78.16268555 -23.98749023 -78.16268555 -23.98749023 -80.17578125 -23.96875 C-81.52408791 -23.96729132 -82.87239569 -23.96663342 -84.22070312 -23.96679688 C-90.47647985 -24.28762514 -90.47647985 -24.28762514 -96.36328125 -22.78125 C-98.54696309 -22.46225265 -100.73542317 -22.17561442 -102.92578125 -21.90625 C-108.02338499 -21.21301759 -112.58908481 -20.23563616 -117.39453125 -18.43359375 C-119.36328125 -17.78125 -119.36328125 -17.78125 -123.30078125 -17.28125 C-124.31140625 -17.11625 -125.32203125 -16.95125 -126.36328125 -16.78125 C-127.02328125 -15.79125 -127.68328125 -14.80125 -128.36328125 -13.78125 C-130.31640625 -12.9375 -130.31640625 -12.9375 -132.61328125 -12.28125 C-136.42769185 -11.12034243 -139.80894762 -9.60176235 -143.36328125 -7.78125 C-144.02328125 -7.78125 -144.68328125 -7.78125 -145.36328125 -7.78125 C-145.36328125 -7.12125 -145.36328125 -6.46125 -145.36328125 -5.78125 C-147.19170802 -4.6427956 -149.02386219 -3.51002531 -150.87109375 -2.40234375 C-160.09295505 3.59620239 -167.80357175 11.23692552 -174.8125 19.64453125 C-175.32425781 20.16402344 -175.83601563 20.68351562 -176.36328125 21.21875 C-177.02328125 21.21875 -177.68328125 21.21875 -178.36328125 21.21875 C-178.65203125 21.96125 -178.94078125 22.70375 -179.23828125 23.46875 C-180.36328125 26.21875 -180.36328125 26.21875 -181.48828125 28.15625 C-182.72498208 31.07133052 -182.7407 33.07359377 -182.36328125 36.21875 C-179.29685465 42.21828031 -174.16290766 46.5831396 -169.36328125 51.21875 C-166.56094457 53.95591606 -163.92939256 56.71183539 -161.42578125 59.71875 C-158.66270068 62.99193775 -155.69184213 65.52757312 -152.36328125 68.21875 C-150.67511192 69.86363294 -149.0097481 71.53212542 -147.36328125 73.21875 C-146.15628679 74.42842072 -144.94788184 75.63668526 -143.73828125 76.84375 C-142.61328125 77.96875 -141.48828125 79.09375 -140.36328125 80.21875 C-139.79867187 80.74210937 -139.2340625 81.26546875 -138.65234375 81.8046875 C-137.36328125 83.21875 -137.36328125 83.21875 -137.36328125 85.21875 C-136.77417969 85.46753906 -136.18507812 85.71632813 -135.578125 85.97265625 C-133.05365301 87.39295002 -131.73765906 88.90918676 -129.92578125 91.15625 C-127.30197886 94.28224253 -124.94406163 96.21772567 -121.36328125 98.21875 C-121.03328125 99.20875 -120.70328125 100.19875 -120.36328125 101.21875 C-118.90093063 102.70504143 -118.90093063 102.70504143 -117.11328125 104.09375 C-113.03942643 107.46922971 -109.37530307 110.96056071 -106.05078125 115.09375 C-103.46405937 118.26614476 -100.47029906 120.82486474 -97.3671875 123.48046875 C-94.5361598 125.93623352 -91.91687342 128.47363842 -89.36328125 131.21875 C-89.36328125 131.87875 -89.36328125 132.53875 -89.36328125 133.21875 C-88.76257813 133.48042969 -88.161875 133.74210938 -87.54296875 134.01171875 C-85.22923848 135.29297799 -84.10869795 136.46682082 -82.48828125 138.53125 C-79.7142024 141.90930551 -76.77289345 144.49106024 -73.36328125 147.21875 C-71.48828125 148.90625 -71.48828125 148.90625 -70.36328125 150.21875 C-70.36328125 150.87875 -70.36328125 151.53875 -70.36328125 152.21875 C-69.37328125 152.21875 -68.38328125 152.21875 -67.36328125 152.21875 C-64.36328125 155.55208333 -64.36328125 155.55208333 -64.36328125 158.21875 C-63.52796875 158.5590625 -63.52796875 158.5590625 -62.67578125 158.90625 C-59.70136914 160.59442985 -57.76228804 162.76948468 -55.36328125 165.21875 C-54.22821986 166.34542217 -53.09140249 167.47032716 -51.953125 168.59375 C-50.73563775 169.80204371 -49.51819051 171.01037772 -48.30078125 172.21875 C-47.68912109 172.82203125 -47.07746094 173.4253125 -46.44726562 174.046875 C-43.18109832 177.29538735 -40.23538033 180.61038534 -37.36328125 184.21875 C-36.70328125 184.54875 -36.04328125 184.87875 -35.36328125 185.21875 C-35.36328125 185.87875 -35.36328125 186.53875 -35.36328125 187.21875 C-34.70328125 187.21875 -34.04328125 187.21875 -33.36328125 187.21875 C-33.36328125 187.87875 -33.36328125 188.53875 -33.36328125 189.21875 C-32.80640625 189.425 -32.24953125 189.63125 -31.67578125 189.84375 C-29.41631314 191.18721753 -28.36341565 192.27032702 -26.73828125 194.28125 C-24.69208728 197.22699713 -24.69208728 197.22699713 -22.36328125 198.21875 C-22.36328125 198.87875 -22.36328125 199.53875 -22.36328125 200.21875 C-21.70328125 200.21875 -21.04328125 200.21875 -20.36328125 200.21875 C-17.82979249 202.55222649 -15.58892062 204.92541882 -13.48828125 207.65625 C-11.71726898 209.79188245 -10.10407917 211.34450479 -7.98828125 213.09375 C-4.85976933 215.68747356 -2.33941984 218.51018111 0.2421875 221.63671875 C1.70472794 223.38933989 1.70472794 223.38933989 4.07421875 225.15625 C7.69842749 228.07329606 10.93265212 231.42370548 13.63671875 235.21875 C13.63671875 236.20875 13.63671875 237.19875 13.63671875 238.21875 C12.44281 237.22641026 11.25704962 236.22426846 10.07421875 235.21875 C9.41292969 234.661875 8.75164062 234.105 8.0703125 233.53125 C6.04483178 231.60655564 4.27427852 229.67614203 2.46264172 227.55849552 C-1.19799307 223.35313295 -5.05604662 219.39695252 -9.01164246 215.47032166 C-9.74984059 214.73338579 -10.48803873 213.99644993 -11.2486065 213.23718268 C-13.70267141 210.78846047 -16.16030191 208.34334912 -18.61791992 205.89819336 C-20.38607725 204.1352336 -22.15398979 202.37202831 -23.92167664 200.6085968 C-27.71859052 196.82159784 -31.51693291 193.03604029 -35.31639671 189.25160027 C-41.3245181 183.26694241 -47.32737564 177.27701977 -53.329422 171.28627014 C-55.38658469 169.23310792 -57.44378149 167.17997988 -59.50098896 165.12686253 C-60.01495306 164.61391765 -60.52891717 164.10097278 -61.05845594 163.57248412 C-66.8967337 157.7459274 -72.73609218 151.92045433 -78.57592773 146.09545898 C-79.10923064 145.56350851 -79.64253355 145.03155804 -80.19199715 144.48348785 C-88.84465962 135.85303186 -97.50114783 127.22642093 -106.15859207 118.60076206 C-115.05977595 109.73197827 -123.95518442 100.85742922 -132.84568769 91.97793871 C-138.32337771 86.50746403 -143.80574861 81.04176668 -149.29426918 75.58215798 C-153.49792035 71.39976784 -157.693717 67.20955896 -161.88664436 63.01641655 C-163.60615431 61.29932914 -165.32824403 59.58482068 -167.05309296 57.87309647 C-169.40768147 55.53568035 -171.75282591 53.18917376 -174.09587097 50.8401947 C-174.77981546 50.16567086 -175.46375995 49.49114701 -176.16843003 48.79618305 C-180.85914469 44.06562819 -184.74113991 39.57831326 -185.98828125 32.84375 C-184.20973482 22.52818072 -174.35258933 14.50053995 -167.36328125 7.21875 C-166.78964844 6.59742188 -166.21601563 5.97609375 -165.625 5.3359375 C-164.36328125 4.21875 -164.36328125 4.21875 -162.36328125 4.21875 C-162.03328125 3.22875 -161.70328125 2.23875 -161.36328125 1.21875 C-159.35471775 -0.45902634 -157.37661566 -1.97369165 -155.23828125 -3.46875 C-154.29927979 -4.12858887 -154.29927979 -4.12858887 -153.34130859 -4.80175781 C-107.65598865 -36.24380682 -43.73378956 -34.64545673 0 0 Z " fill="#FAB606" transform="translate(205.36328125,367.78125)"/>
<path d="M0 0 C26.85127396 -0.04672492 53.70254183 -0.08199128 80.55384827 -0.10362434 C93.02142699 -0.11393602 105.48898046 -0.12799431 117.95654297 -0.15087891 C128.82351893 -0.17081606 139.69047658 -0.18371723 150.55747032 -0.18817699 C156.31120443 -0.1907838 162.06488619 -0.19690879 167.81860352 -0.21146011 C173.2357684 -0.2250491 178.65285944 -0.22921995 184.07003975 -0.22621536 C186.05657922 -0.22676493 188.0431212 -0.2307345 190.02964592 -0.23841095 C192.74633521 -0.24839276 195.46274737 -0.24595705 198.17944336 -0.24050903 C198.96156693 -0.24633472 199.74369049 -0.2521604 200.54951477 -0.25816262 C205.66844038 -0.23050414 210.07411805 0.59314652 215 2 C215 2.33 215 2.66 215 3 C169.02322481 3.07503051 123.05182872 2.89976906 77.07640123 2.55461788 C68.74140915 2.49214819 60.40639657 2.43263059 52.07138205 2.37324238 C35.04756504 2.25188506 18.0237744 2.12719728 1 2 C0.67 1.34 0.34 0.68 0 0 Z " fill="#F91204" transform="translate(27,312)"/>
<path d="M0 0 C10.99326465 -0.08344721 21.98636507 -0.14956812 32.97988892 -0.18658447 C36.40213263 -0.19839793 39.82424815 -0.21668222 43.24642944 -0.24041748 C47.26300822 -0.26763117 51.27935978 -0.27995954 55.29602814 -0.28062057 C56.7624213 -0.28320053 58.22881591 -0.29084396 59.69515228 -0.30400467 C61.69497262 -0.3210322 63.69493662 -0.31744115 65.69482422 -0.31286621 C67.36876503 -0.31833466 67.36876503 -0.31833466 69.07652283 -0.32391357 C72.70426296 0.10465677 75.08132514 1.14154141 78.18725586 3.0435791 C80.67884626 6.7809647 80.6451887 8.61689493 80.18725586 13.0435791 C78.31225586 15.9810791 78.31225586 15.9810791 76.18725586 18.0435791 C75.52725586 18.0435791 74.86725586 18.0435791 74.18725586 18.0435791 C76.06225586 14.1685791 76.06225586 14.1685791 77.18725586 13.0435791 C77.52064182 9.58545741 77.52064182 9.58545741 77.18725586 6.0435791 C73.57878714 3.63793329 71.96611806 3.79438012 67.67443848 3.79634094 C67.00993384 3.79392653 66.3454292 3.79151211 65.66078806 3.78902453 C63.42927695 3.78337927 61.19805108 3.79205707 58.96655273 3.80065918 C57.36821413 3.79958642 55.76987592 3.79764782 54.17153931 3.79490662 C49.82397134 3.79005105 45.47650572 3.79772534 41.12895012 3.80785966 C36.57502229 3.81664106 32.02109766 3.81488261 27.46716309 3.8144989 C19.81036671 3.81543631 12.15360989 3.82412613 4.49682617 3.83776855 C-4.33657472 3.85345001 -13.16993215 3.85876821 -22.00334597 3.858033 C-31.42093077 3.85735518 -40.83849895 3.86431482 -50.25607872 3.8734796 C-52.96047912 3.87560366 -55.6648768 3.87631983 -58.36927795 3.87671852 C-62.63740225 3.87772984 -66.90549065 3.88389035 -71.17360306 3.89388466 C-72.7331635 3.89678405 -74.29272808 3.89804028 -75.85229111 3.89745712 C-84.22014015 3.89551381 -92.49177402 4.07466625 -100.81274414 5.0435791 C-100.48274414 4.3835791 -100.15274414 3.7235791 -99.81274414 3.0435791 C-91.41128648 0.41786842 -82.79497671 0.69264133 -74.08227539 0.6295166 C-72.40121628 0.61050829 -70.72016558 0.5907437 -69.03912354 0.57028198 C-64.50903799 0.51795336 -59.97892768 0.47819856 -55.44868851 0.44187927 C-52.62233148 0.41855507 -49.79601742 0.39227692 -46.96969604 0.36499023 C-35.22095643 0.2519044 -23.47216948 0.16079942 -11.72314453 0.08325195 C-7.81541305 0.05744235 -3.9077037 0.02971834 0 0 Z " fill="#047310" transform="translate(452.812744140625,413.9564208984375)"/>
<path d="M0 0 C0.33 0 0.66 0 1 0 C0.99631283 0.69445504 0.99262566 1.38891008 0.98882675 2.10440922 C0.90042933 19.01420785 0.8342679 35.92393314 0.79275131 52.83390903 C0.77213973 61.01150888 0.74404614 69.18895434 0.69824219 77.36645508 C0.65833124 84.49527066 0.63255697 91.62397442 0.62364602 98.75289863 C0.61843842 102.52648797 0.60622842 106.29975743 0.57707977 110.07324409 C0.54984306 113.62816467 0.54157144 117.18263491 0.54756927 120.73764992 C0.54595152 122.65793235 0.52447193 124.5781662 0.50231934 126.49832153 C0.53439196 133.22907836 0.89195797 137.56860905 5 143 C11.23368643 148.77756303 18.00355391 148.71321393 26.109375 148.5703125 C32.70463665 148.11411851 37.67337729 145.11082989 43.15625 141.65234375 C44.0946875 141.10707031 45.033125 140.56179688 46 140 C46.66 140.33 47.32 140.66 48 141 C38.61725922 148.14968765 30.01319234 152.27071983 18 152 C11.57450053 150.96303179 6.41007566 148.93508466 2 144 C-1.581031 138.35786113 -2.30178461 132.46130658 -2.59716797 125.90136719 C-2.65568089 124.72518137 -2.65568089 124.72518137 -2.7153759 123.52523422 C-3.13652331 114.27433591 -3.14472706 105.02419463 -3.1328125 95.765625 C-3.13348921 93.87107328 -3.13446226 91.97652164 -3.13571167 90.08197021 C-3.13717284 86.13894818 -3.13508657 82.19594903 -3.13037109 78.25292969 C-3.12469066 73.26713346 -3.12795236 68.2813913 -3.13394356 63.29559708 C-3.13760585 59.3898683 -3.13638472 55.48415175 -3.13381577 51.57842255 C-3.13316122 49.74332421 -3.13392157 47.90822466 -3.13629532 46.07312775 C-3.14639976 36.06740141 -3.00436309 26.07598834 -2.61669922 16.07714844 C-2.58635653 15.15830997 -2.55601383 14.23947151 -2.52475166 13.29278946 C-2.31479427 8.51627531 -1.82092247 4.4889308 0 0 Z " fill="#05880A" transform="translate(293,476)"/>
<path d="M0 0 C0.33 0 0.66 0 1 0 C1.02341593 14.82142674 1.04102175 29.64285101 1.05181217 44.46429253 C1.05695671 51.34696956 1.06396412 58.22963506 1.07543945 65.11230469 C1.08651485 71.75830178 1.0922898 78.40429007 1.09487724 85.05029678 C1.09672047 87.58192254 1.10031981 90.11354766 1.10573006 92.6451683 C1.11302167 96.19949492 1.11398752 99.75377254 1.11352539 103.30810547 C1.11712067 104.34748764 1.12071594 105.38686981 1.12442017 106.45774841 C1.10153298 122.79693404 1.10153298 122.79693404 -1 127 C-1.66 127 -2.32 127 -3 127 C-2.89251842 117.92486901 -2.77988903 108.84982086 -2.66066074 99.77483654 C-2.60546249 95.56109924 -2.55204741 91.34735496 -2.50268555 87.13354492 C-2.45499634 83.06809236 -2.40265184 79.00272411 -2.34705925 74.93737221 C-2.32665636 73.38523771 -2.30793986 71.83308011 -2.29092598 70.28090477 C-2.26683622 68.10930395 -2.23678801 65.93786213 -2.20532227 63.76635742 C-2.18977798 62.52947678 -2.1742337 61.29259613 -2.15821838 60.01823425 C-2 57 -2 57 -1 54 C-0.88427033 52.23659857 -0.82350925 50.46935231 -0.79467773 48.70239258 C-0.77473251 47.62149857 -0.75478729 46.54060455 -0.73423767 45.42695618 C-0.71752518 44.26125595 -0.70081268 43.09555573 -0.68359375 41.89453125 C-0.66281265 40.70018967 -0.64203156 39.50584808 -0.62062073 38.27531433 C-0.55515724 34.45443557 -0.4962549 30.63348724 -0.4375 26.8125 C-0.39431176 24.22460214 -0.35069737 21.63671135 -0.30664062 19.04882812 C-0.19947908 12.69929261 -0.0977066 6.34968766 0 0 Z " fill="#F41011" transform="translate(349,96)"/>
<path d="M0 0 C0.99 0.495 0.99 0.495 2 1 C-60.89311218 63.89311218 -60.89311218 63.89311218 -62.49568748 65.49483299 C-63.91022318 66.91017218 -65.32182748 68.32843938 -66.73323059 69.74690247 C-69.35486827 72.3527279 -72.07004808 74.83438079 -74.8125 77.3125 C-76.27623047 78.63701172 -76.27623047 78.63701172 -77.76953125 79.98828125 C-78.87361328 80.98408203 -78.87361328 80.98408203 -80 82 C-80 79 -80 79 -77.9362793 76.59570312 C-76.9899226 75.64982212 -76.03528899 74.71217743 -75.07421875 73.78125 C-74.57082474 73.28210083 -74.06743073 72.78295166 -73.54878235 72.26867676 C-71.93525177 70.67194908 -70.31163161 69.08593653 -68.6875 67.5 C-67.60413374 66.43168274 -66.52144298 65.36268001 -65.43945312 64.29296875 C-63.44776461 62.32578735 -61.45230797 60.36261466 -59.4519043 58.40429688 C-58.03985707 57.01966668 -56.64302916 55.6182785 -55.29223633 54.17382812 C-54 53 -54 53 -52 53 C-51.67 52.01 -51.34 51.02 -51 50 C-50.34 50 -49.68 50 -49 50 C-49 49.34 -49 48.68 -49 48 C-48.34 48 -47.68 48 -47 48 C-46.73832031 47.40058594 -46.47664063 46.80117188 -46.20703125 46.18359375 C-44.92779812 43.86938236 -43.73749558 42.70340555 -41.6875 41.0625 C-37.86074216 37.90403251 -34.25137369 34.71484543 -31.3125 30.6875 C-30.879375 30.130625 -30.44625 29.57375 -30 29 C-29.34 29 -28.68 29 -28 29 C-27.505 27.515 -27.505 27.515 -27 26 C-24.5625 23.3125 -24.5625 23.3125 -22 21 C-21.34 21 -20.68 21 -20 21 C-19.773125 20.443125 -19.54625 19.88625 -19.3125 19.3125 C-16.25335388 13.92257588 -10.7353042 9.86012303 -6.1875 5.6875 C-5.59001953 5.13771484 -4.99253906 4.58792969 -4.37695312 4.02148438 C-2.91885078 2.68003022 -1.4595496 1.33987935 0 0 Z " fill="#028818" transform="translate(461,496)"/>
<path d="M0 0 C2.89762005 2.45883758 3.8976495 4.87625073 5.125 8.4375 C5.45757812 9.38496094 5.79015625 10.33242187 6.1328125 11.30859375 C7.52791508 15.63843913 8.12832863 19.24555097 8.14526367 23.82250977 C8.15164352 24.99374893 8.15802338 26.1649881 8.16459656 27.37171936 C8.16570938 28.63221603 8.1668222 29.89271271 8.16796875 31.19140625 C8.17129715 32.48819809 8.17462555 33.78498993 8.17805481 35.12107849 C8.18403352 37.86222161 8.18589588 40.60333325 8.18530273 43.34448242 C8.1852009 46.85737801 8.19888051 50.37007244 8.21607494 53.88292027 C8.229858 57.23575219 8.22928314 60.58854633 8.23046875 63.94140625 C8.23765427 65.20392715 8.24483978 66.46644806 8.25224304 67.76722717 C8.24916641 68.93531418 8.24608978 70.10340118 8.24291992 71.30688477 C8.24434494 72.33628677 8.24576996 73.36568878 8.24723816 74.42628479 C8 77 8 77 6 80 C5.99635437 79.23515793 5.99270874 78.47031586 5.98895264 77.68229675 C5.95088998 70.43038618 5.89383332 63.17897903 5.81609726 55.92739391 C5.7767962 52.20035884 5.74452369 48.47355388 5.72900391 44.74633789 C5.71372129 41.14095811 5.67907532 37.53621173 5.63169098 33.9311161 C5.61699543 32.5642584 5.60896587 31.1973102 5.60811615 29.83037376 C5.76232942 16.54208063 5.76232942 16.54208063 0 5 C-0.04063832 3.33382885 -0.042721 1.66611905 0 0 Z " fill="#F80304" transform="translate(341,73)"/>
<path d="M0 0 C0.33 0 0.66 0 1 0 C1.14695312 1.93552734 1.14695312 1.93552734 1.296875 3.91015625 C1.44704109 5.62768094 1.59813191 7.34512496 1.75 9.0625 C1.811875 9.91005859 1.87375 10.75761719 1.9375 11.63085938 C2.58684851 18.63841201 4.257286 23.45797239 9.5625 28.375 C15.95642105 32.63761403 25.58974518 32.2230808 33 31 C37.38477617 29.45011125 41.23859492 27.12352201 45.15625 24.65234375 C46.0946875 24.10707031 47.033125 23.56179688 48 23 C48.66 23.33 49.32 23.66 50 24 C40.61725922 31.14968765 32.01319234 35.27071983 20 35 C13.57450053 33.96303179 8.41007566 31.93508466 4 27 C-1.29967952 18.73581225 -0.39264828 9.40174496 0 0 Z " fill="#108112" transform="translate(291,593)"/>
<path d="M0 0 C6.75 2.625 6.75 2.625 9 6 C9.47043558 10.23392019 9.44127101 12.30867543 7.125 15.9375 C5 18 5 18 3 18 C4.875 14.125 4.875 14.125 6 13 C6.33338596 9.54187831 6.33338596 9.54187831 6 6 C2.16933667 3.44622445 -0.97578626 3.6929708 -5.41870117 3.68115234 C-6.27745346 3.67110672 -7.13620575 3.6610611 -8.02098083 3.65071106 C-10.86163662 3.6198013 -13.70219782 3.6028223 -16.54296875 3.5859375 C-18.51167112 3.56723212 -20.48036543 3.54765918 -22.4490509 3.5272522 C-27.63246917 3.47585846 -32.81591345 3.4362715 -37.99945068 3.39910889 C-43.2881111 3.35911461 -48.57666262 3.30800142 -53.86523438 3.2578125 C-64.24341317 3.16096747 -74.62165335 3.07659015 -85 3 C-85 2.67 -85 2.34 -85 2 C-56.95 2 -28.9 2 0 2 C0 1.34 0 0.68 0 0 Z " fill="#058418" transform="translate(524,414)"/>
<path d="M0 0 C1.64622059 0.02620959 3.29245649 0.05147309 4.93870544 0.07583618 C9.24439062 0.14207157 13.54974864 0.22105146 17.85516357 0.30279541 C22.25943571 0.38412415 26.66389811 0.45324892 31.06835938 0.5234375 C39.6903351 0.66261617 48.31200338 0.8152753 56.93359375 0.9765625 C56.93359375 1.3065625 56.93359375 1.6365625 56.93359375 1.9765625 C55.5984095 1.9920237 55.5984095 1.9920237 54.23625183 2.00779724 C45.80726896 2.1061754 37.37834938 2.20874331 28.94947338 2.31590176 C24.6171367 2.37083518 20.28479302 2.42420429 15.95239258 2.47387695 C11.76371834 2.52196133 7.57511635 2.57431343 3.38652992 2.62950325 C1.79634741 2.64972919 0.20614525 2.66847199 -1.38407326 2.68563652 C-9.9840735 2.77947917 -18.51135865 2.99362308 -27.06640625 3.9765625 C-26.73640625 3.3165625 -26.40640625 2.6565625 -26.06640625 1.9765625 C-17.54908652 -0.76796667 -8.83256337 -0.18212941 0 0 Z " fill="#068619" transform="translate(379.06640625,415.0234375)"/>
<path d="M0 0 C-1 2 -1 2 -3.37109375 2.859375 C-4.38300781 3.15328125 -5.39492188 3.4471875 -6.4375 3.75 C-20.17618465 8.18915047 -31.09243501 17.83960485 -42 27 C-41 25 -40 23 -39 21 C-38.34 21 -37.68 21 -37 21 C-37 20.34 -37 19.68 -37 19 C-27.67318734 10.76644011 -12.8479061 -0.75575918 0 0 Z " fill="#0B8517" transform="translate(351,419)"/>
<path d="M0 0 C0.66 0.33 1.32 0.66 2 1 C-8 11 -8 11 -10.36767578 13.36328125 C-12.85334828 15.85310345 -15.32496674 18.35595844 -17.79296875 20.86328125 C-19.59101191 22.67982007 -21.3891928 24.49622257 -23.1875 26.3125 C-24.55938477 27.70952148 -24.55938477 27.70952148 -25.95898438 29.13476562 C-26.83232422 30.01455078 -27.70566406 30.89433594 -28.60546875 31.80078125 C-29.79885864 33.00988159 -29.79885864 33.00988159 -31.01635742 34.2434082 C-33 36 -33 36 -35 36 C-33.71480435 33.13302508 -32.42870746 31.02392288 -30 29 C-29.34 29 -28.68 29 -28 29 C-27.7421875 28.40316406 -27.484375 27.80632813 -27.21875 27.19140625 C-25.89941578 24.81914183 -24.6125068 23.61586875 -22.5 21.9375 C-20.06335088 19.99127814 -18.77737879 18.66606818 -17 16 C-16.34 16 -15.68 16 -15 16 C-14.67 15.01 -14.34 14.02 -14 13 C-12.546875 11.5703125 -12.546875 11.5703125 -10.75 10.125 C-7.65415084 7.56949412 -4.80101454 4.88104353 -2 2 C-1.34 1.34 -0.68 0.68 0 0 Z " fill="#068315" transform="translate(377,579)"/>
<path d="M0 0 C0.66 0 1.32 0 2 0 C-0.59650857 6.13720208 -4.34430222 9.91033239 -10.17578125 12.93359375 C-12.20368717 14.11907194 -13.81657625 15.49386652 -15.5625 17.0625 C-18.48138554 19.67100631 -21.39413506 21.41693734 -25 23 C-24.875 21.25 -24.875 21.25 -24 19 C-18.77777778 15 -18.77777778 15 -16 15 C-16 14.34 -16 13.68 -16 13 C-13 11 -13 11 -10 11 C-9.79375 10.21625 -9.5875 9.4325 -9.375 8.625 C-8 6 -8 6 -4.875 4.6875 C-3.92625 4.460625 -2.9775 4.23375 -2 4 C-2 3.34 -2 2.68 -2 2 C-1.34 2 -0.68 2 0 2 C0 1.34 0 0.68 0 0 Z " fill="#F60C0E" transform="translate(318,277)"/>
<path d="M0 0 C3.34549634 1.4894333 5.87305486 3.40569848 8.625 5.8125 C9.40101563 6.47894531 10.17703125 7.14539063 10.9765625 7.83203125 C13.13216498 10.14160534 13.92201354 12.06767904 15 15 C16.93383287 16.30065921 16.93383287 16.30065921 19 17 C19.66 17.33 20.32 17.66 21 18 C22.87379605 18.07033769 24.75001102 18.0843022 26.625 18.0625 C27.62789062 18.05347656 28.63078125 18.04445313 29.6640625 18.03515625 C30.82035156 18.01775391 30.82035156 18.01775391 32 18 C32.495 16.515 32.495 16.515 33 15 C33.495 16.485 33.495 16.485 34 18 C30.53004884 21.19235507 27.71059725 22.07722291 23 22 C17.5408404 19.35001343 13.06077924 15.46685716 9 11 C8.24074219 10.175 7.48148438 9.35 6.69921875 8.5 C0 1.16524106 0 1.16524106 0 0 Z " fill="#F2B104" transform="translate(220,606)"/>
<path d="M0 0 C0 0.66 0 1.32 0 2 C-1.65002828 3.35386936 -3.3174387 4.68678142 -5 6 C-5.33 6.66 -5.66 7.32 -6 8 C-6.66 8 -7.32 8 -8 8 C-8 8.66 -8 9.32 -8 10 C-9.43621943 11.23581672 -10.87830536 12.46576988 -12.35546875 13.65234375 C-15.98323555 16.62521678 -19.05881849 20.04166066 -22.0625 23.625 C-24.17702822 26.13292882 -26.23283819 28.1907019 -29 30 C-29.66 29.67 -30.32 29.34 -31 29 C-28.04043371 25.3745313 -25.1436006 22.01690095 -21.5625 19 C-16.42015994 14.65958431 -11.78465831 9.80472048 -7.10375977 4.97851562 C-6.47397217 4.33720703 -5.84418457 3.69589844 -5.1953125 3.03515625 C-4.62828613 2.4512915 -4.06125977 1.86742676 -3.47705078 1.26586914 C-2 0 -2 0 0 0 Z " fill="#038717" transform="translate(494,465)"/>
<path d="M0 0 C0.99 0.33 1.98 0.66 3 1 C2.61328125 1.556875 2.2265625 2.11375 1.828125 2.6875 C-3.67276311 10.74820733 -7.49708702 18.90733227 -11 28 C-11.33 28 -11.66 28 -12 28 C-11.79223941 17.61197043 -5.7502831 8.35250835 0 0 Z " fill="#118612" transform="translate(306,447)"/>
<path d="M0 0 C0.8971875 0.5259375 0.8971875 0.5259375 1.8125 1.0625 C-6.98220944 4.3037934 -15.92897331 5.14953623 -25.1875 6.0625 C-25.1875 5.4025 -25.1875 4.7425 -25.1875 4.0625 C-23.5375 3.7325 -21.8875 3.4025 -20.1875 3.0625 C-20.1875 2.7325 -20.1875 2.4025 -20.1875 2.0625 C-19.13949219 1.92972656 -18.09148437 1.79695313 -17.01171875 1.66015625 C-15.63279222 1.48192765 -14.25388707 1.30353359 -12.875 1.125 C-11.83956055 0.99448242 -11.83956055 0.99448242 -10.78320312 0.86132812 C-0.97526042 -0.41796875 -0.97526042 -0.41796875 0 0 Z " fill="#FA0D0A" transform="translate(269.1875,308.9375)"/>
<path d="M0 0 C-1.38685223 3.1195572 -3.00189491 5.25855799 -5.40625 7.671875 C-6.06753906 8.33574219 -6.72882812 8.99960937 -7.41015625 9.68359375 C-8.09980469 10.36550781 -8.78945313 11.04742187 -9.5 11.75 C-10.18964844 12.44738281 -10.87929688 13.14476562 -11.58984375 13.86328125 C-12.25113281 14.52199219 -12.91242187 15.18070312 -13.59375 15.859375 C-14.19896484 16.46233398 -14.80417969 17.06529297 -15.42773438 17.68652344 C-17 19 -17 19 -19 19 C-17.61314777 15.8804428 -15.99810509 13.74144201 -13.59375 11.328125 C-12.60181641 10.33232422 -12.60181641 10.33232422 -11.58984375 9.31640625 C-10.55537109 8.29353516 -10.55537109 8.29353516 -9.5 7.25 C-8.81035156 6.55261719 -8.12070312 5.85523438 -7.41015625 5.13671875 C-6.74886719 4.47800781 -6.08757813 3.81929688 -5.40625 3.140625 C-4.80103516 2.53766602 -4.19582031 1.93470703 -3.57226562 1.31347656 C-2 0 -2 0 0 0 Z " fill="#05891F" transform="translate(526,433)"/>
<path d="M0 0 C0 3 0 3 -2.125 5.3125 C-3.548125 6.6428125 -3.548125 6.6428125 -5 8 C-6.06384976 9.10286625 -7.12635454 10.20703151 -8.1875 11.3125 C-11 14 -11 14 -13 14 C-13.66 15.32 -14.32 16.64 -15 18 C-15.99 18 -16.98 18 -18 18 C-15.06005208 13.95757161 -11.67561806 10.92645552 -7.8984375 7.7109375 C-5.64203499 5.67738956 -3.84186563 3.40859351 -2 1 C-1.34 0.67 -0.68 0.34 0 0 Z " fill="#F90305" transform="translate(47,276)"/>
<path d="M0 0 C3.37014456 1.49271243 5.87217838 3.43520826 8.625 5.875 C9.78902344 6.89207031 9.78902344 6.89207031 10.9765625 7.9296875 C12.89524597 9.89281924 13.95194753 11.48692795 15 14 C12 14 12 14 10.3515625 12.4609375 C9.78179687 11.77257812 9.21203125 11.08421875 8.625 10.375 C7.71427734 9.28832031 7.71427734 9.28832031 6.78515625 8.1796875 C6.19605469 7.46039062 5.60695312 6.74109375 5 6 C4.02108912 4.8331187 3.041959 3.66642126 2.0625 2.5 C1.0415625 1.2625 1.0415625 1.2625 0 0 Z " fill="#FAB802" transform="translate(220,606)"/>
<path d="M0 0 C0.33 0.66 0.66 1.32 1 2 C0.37915039 3.69580078 0.37915039 3.69580078 -0.65234375 5.6953125 C-1.01650391 6.41074219 -1.38066406 7.12617188 -1.75585938 7.86328125 C-2.14580078 8.60964844 -2.53574219 9.35601562 -2.9375 10.125 C-3.32357422 10.87910156 -3.70964844 11.63320312 -4.10742188 12.41015625 C-5.06452132 14.27709097 -6.03136106 16.13902628 -7 18 C-7.33 16.68 -7.66 15.36 -8 14 C-7.34 14 -6.68 14 -6 14 C-5.896875 13.154375 -5.79375 12.30875 -5.6875 11.4375 C-4.90788905 7.53944527 -3.74802363 4.56596821 -2 1 C-1.34 0.67 -0.68 0.34 0 0 Z " fill="#F01012" transform="translate(343,239)"/>
<path d="M0 0 C3.0580633 2.38911196 3.93142525 3.52854858 4.5 7.4375 C3.92893804 11.50631644 2.92154572 13.1643821 0 16 C-0.66 16 -1.32 16 -2 16 C-0.125 12.125 -0.125 12.125 1 11 C1.14475933 7.1638778 1.17661508 3.67692213 0 0 Z " fill="#07892C" transform="translate(529,416)"/>
<path d="M0 0 C0.66 0.33 1.32 0.66 2 1 C-8.18906606 8.85193622 -8.18906606 8.85193622 -15 9 C-11.94216092 6.59430669 -8.77542004 4.63810385 -5.375 2.75 C-4.41335938 2.20859375 -3.45171875 1.6671875 -2.4609375 1.109375 C-1.64882813 0.74328125 -0.83671875 0.3771875 0 0 Z " fill="#097E13" transform="translate(339,616)"/>
<path d="M0 0 C-5.61 0 -11.22 0 -17 0 C-17 -0.66 -17 -1.32 -17 -2 C-10.91320562 -3.71191092 -5.63140075 -2.81570037 0 0 Z " fill="#FA2007" transform="translate(242,315)"/>
<path d="M0 0 C0.66 0 1.32 0 2 0 C0.59023295 3.03852705 -1.08870228 5.5939595 -3.125 8.25 C-3.66382813 8.95640625 -4.20265625 9.6628125 -4.7578125 10.390625 C-5.16773438 10.92171875 -5.57765625 11.4528125 -6 12 C-6.33 11.01 -6.66 10.02 -7 9 C-6.34 9 -5.68 9 -5 9 C-4.9175 8.443125 -4.835 7.88625 -4.75 7.3125 C-3.76104459 4.26322081 -2.15242534 2.34810037 0 0 Z " fill="#F5090B" transform="translate(330,262)"/>
<path d="M0 0 C0.33 0 0.66 0 1 0 C1.19392201 5.52677733 0.7479503 9.75614911 -1 15 C-1.33 15 -1.66 15 -2 15 C-2.21755666 9.5610835 -2.10428384 5.12919186 0 0 Z " fill="#188E14" transform="translate(293,476)"/>
<path d="M0 0 C0 0.66 0 1.32 0 2 C-0.66 2 -1.32 2 -2 2 C-2.226875 2.5775 -2.45375 3.155 -2.6875 3.75 C-4.33038023 6.5663661 -6.39533227 8.08077114 -9 10 C-9.66 9.67 -10.32 9.34 -11 9 C-9.54782324 7.49403892 -8.08807139 5.99537896 -6.625 4.5 C-5.40683594 3.24703125 -5.40683594 3.24703125 -4.1640625 1.96875 C-2 0 -2 0 0 0 Z " fill="#03861C" transform="translate(505,454)"/>
<path d="M0 0 C-1 3 -1 3 -3.375 4.25 C-6 5 -6 5 -9 4 C-6.31059578 0.90718514 -4.07621501 0 0 0 Z " fill="#F80D0B" transform="translate(281,304)"/>
<path d="M0 0 C1 4 1 4 1 4 Z " fill="#00BFFF" transform="translate(380,289)"/>
<path d="" fill="#FFBF00" transform="translate(0,0)"/>
<path d="" fill="#FFD400" transform="translate(0,0)"/>
<path d="" fill="#00D4FF" transform="translate(0,0)"/>
<path d="M0 0 C2 1 2 1 2 1 Z " fill="#FFBF00" transform="translate(84,345)"/>
<path d="M0 0 C2 1 2 1 2 1 Z " fill="#00AAFF" transform="translate(581,305)"/>
<path d="" fill="#3F7F3F" transform="translate(0,0)"/>
<path d="" fill="#00FF00" transform="translate(0,0)"/>
<path d="" fill="#FFFF00" transform="translate(0,0)"/>
<path d="" fill="#FF7F00" transform="translate(0,0)"/>
<path d="" fill="#FFFF00" transform="translate(0,0)"/>
<path d="" fill="#FFFF00" transform="translate(0,0)"/>
<path d="" fill="#BFBF00" transform="translate(0,0)"/>
<path d="" fill="#FFFF00" transform="translate(0,0)"/>
<path d="" fill="#FFFF00" transform="translate(0,0)"/>
<path d="" fill="#7F7F00" transform="translate(0,0)"/>
<path d="" fill="#FFFF00" transform="translate(0,0)"/>
<path d="" fill="#7F7F00" transform="translate(0,0)"/>
<path d="" fill="#00FF00" transform="translate(0,0)"/>
<path d="" fill="#FFFF00" transform="translate(0,0)"/>
<path d="" fill="#FFFF00" transform="translate(0,0)"/>
<path d="" fill="#00FF00" transform="translate(0,0)"/>
<path d="" fill="#FFFF00" transform="translate(0,0)"/>
<path d="" fill="#FFFF00" transform="translate(0,0)"/>
<path d="" fill="#FFFF00" transform="translate(0,0)"/>
<path d="" fill="#FFFF00" transform="translate(0,0)"/>
<path d="" fill="#FFFF00" transform="translate(0,0)"/>
<path d="" fill="#00FF00" transform="translate(0,0)"/>
<path d="" fill="#FFFF00" transform="translate(0,0)"/>
<path d="" fill="#CCCC00" transform="translate(0,0)"/>
<path d="" fill="#FFFF00" transform="translate(0,0)"/>
<path d="" fill="#00FF00" transform="translate(0,0)"/>
<path d="" fill="#FFFF00" transform="translate(0,0)"/>
<path d="" fill="#FFFF00" transform="translate(0,0)"/>
<path d="" fill="#00FF00" transform="translate(0,0)"/>
<path d="" fill="#FFFF00" transform="translate(0,0)"/>
<path d="" fill="#FFFF00" transform="translate(0,0)"/>
<path d="" fill="#FFFF00" transform="translate(0,0)"/>
<path d="" fill="#FFAA00" transform="translate(0,0)"/>
<path d="" fill="#FFFF00" transform="translate(0,0)"/>
<path d="" fill="#FFFF00" transform="translate(0,0)"/>
<path d="" fill="#FFFF00" transform="translate(0,0)"/>
<path d="" fill="#FFFF00" transform="translate(0,0)"/>
<path d="" fill="#00FF00" transform="translate(0,0)"/>
<path d="" fill="#7F7F00" transform="translate(0,0)"/>
<path d="" fill="#FFFF00" transform="translate(0,0)"/>
<path d="" fill="#FFFF00" transform="translate(0,0)"/>
<path d="" fill="#FFFF00" transform="translate(0,0)"/>
<path d="" fill="#FFFF00" transform="translate(0,0)"/>
<path d="" fill="#00AA55" transform="translate(0,0)"/>
<path d="" fill="#00FF00" transform="translate(0,0)"/>
<path d="" fill="#007F00" transform="translate(0,0)"/>
<path d="" fill="#007F00" transform="translate(0,0)"/>
<path d="" fill="#00FF00" transform="translate(0,0)"/>
<path d="" fill="#007F7F" transform="translate(0,0)"/>
<path d="" fill="#00FFFF" transform="translate(0,0)"/>
<path d="" fill="#007FFF" transform="translate(0,0)"/>
<path d="" fill="#007FFF" transform="translate(0,0)"/>
<path d="" fill="#00AAAA" transform="translate(0,0)"/>
<path d="" fill="#00FFFF" transform="translate(0,0)"/>
<path d="" fill="#00AAAA" transform="translate(0,0)"/>
<path d="" fill="#FFFF00" transform="translate(0,0)"/>
<path d="" fill="#007FFF" transform="translate(0,0)"/>
<path d="" fill="#FF7F00" transform="translate(0,0)"/>
<path d="" fill="#FFAA00" transform="translate(0,0)"/>
<path d="" fill="#00FFFF" transform="translate(0,0)"/>
<path d="" fill="#FF7F00" transform="translate(0,0)"/>
<path d="" fill="#00FFFF" transform="translate(0,0)"/>
<path d="" fill="#FFFF00" transform="translate(0,0)"/>
<path d="" fill="#00AAFF" transform="translate(0,0)"/>
<path d="" fill="#FFFF00" transform="translate(0,0)"/>
<path d="" fill="#FFFF00" transform="translate(0,0)"/>
<path d="" fill="#007FFF" transform="translate(0,0)"/>
<path d="" fill="#007FFF" transform="translate(0,0)"/>
<path d="" fill="#FF7F00" transform="translate(0,0)"/>
<path d="" fill="#FFFF00" transform="translate(0,0)"/>
<path d="" fill="#FF7F00" transform="translate(0,0)"/>
<path d="" fill="#FF7F00" transform="translate(0,0)"/>
<path d="" fill="#FFFF00" transform="translate(0,0)"/>
<path d="" fill="#FFBF00" transform="translate(0,0)"/>
<path d="" fill="#00FFFF" transform="translate(0,0)"/>
<path d="" fill="#00FFFF" transform="translate(0,0)"/>
<path d="" fill="#00FFFF" transform="translate(0,0)"/>
<path d="" fill="#00AAFF" transform="translate(0,0)"/>
<path d="" fill="#FF0000" transform="translate(0,0)"/>
<path d="" fill="#FF0000" transform="translate(0,0)"/>
<path d="" fill="#FF0000" transform="translate(0,0)"/>
<path d="" fill="#FF5500" transform="translate(0,0)"/>
<path d="" fill="#FF5500" transform="translate(0,0)"/>
<path d="" fill="#FF0000" transform="translate(0,0)"/>
<path d="" fill="#FF7F00" transform="translate(0,0)"/>
<path d="" fill="#00FFFF" transform="translate(0,0)"/>
<path d="" fill="#007FFF" transform="translate(0,0)"/>
<path d="" fill="#00FFFF" transform="translate(0,0)"/>
<path d="" fill="#FF0000" transform="translate(0,0)"/>
<path d="" fill="#55AAFF" transform="translate(0,0)"/>
<path d="" fill="#FF0000" transform="translate(0,0)"/>
<path d="" fill="#FF0000" transform="translate(0,0)"/>
<path d="" fill="#007FFF" transform="translate(0,0)"/>
<path d="" fill="#7F7FFF" transform="translate(0,0)"/>
<path d="" fill="#007FFF" transform="translate(0,0)"/>
<path d="" fill="#00FFFF" transform="translate(0,0)"/>
<path d="" fill="#00FFFF" transform="translate(0,0)"/>
<path d="" fill="#00FFFF" transform="translate(0,0)"/>
<path d="" fill="#FF0000" transform="translate(0,0)"/>
<path d="" fill="#FF0000" transform="translate(0,0)"/>
<path d="" fill="#FF0000" transform="translate(0,0)"/>
<path d="" fill="#FF0000" transform="translate(0,0)"/>
<path d="" fill="#FF0000" transform="translate(0,0)"/>
<path d="" fill="#FF0000" transform="translate(0,0)"/>
</svg>
